# xmcd
#
# Track frame offsets: 
#        150
#        16075
#        31654
#        50394
#        70621
#        87917
#        100518
#        116810
#        134418
#        156273
#        172599
#        191770
#        207174
#        218742
#
# Disc length: 3128 seconds
#
# Revision: 0
# Processed by: cddbd v1.4PL0 Copyright (c) Steve Scherf et al.
# Submitted via: ExactAudioCopy v0.95a2
#
DISCID=ad0c360e
DTITLE=Denise Mcnavish - Combined Cd's
DYEAR=1900
DGENRE=country
TTITLE0=Cross My Heart
TTITLE1=Did You Tell Her About Me
TTITLE2=Don't Even Go There
TTITLE3=Knockin' On Heaven's Door
TTITLE4=The Other Side Of Love
TTITLE5=Wrong Side Of Memphis
TTITLE6=A Broken Wing
TTITLE7=Because You Love Me
TTITLE8=Cowboy Take Me Away
TTITLE9=Honey I'm Home
TTITLE10=How Do I Live
TTITLE11=Independance Day
TTITLE12=My Baby Loves Me
TTITLE13=You Were Mine
EXTD=
EXTT0=
EXTT1=
EXTT2=
EXTT3=
EXTT4=
EXTT5=
EXTT6=
EXTT7=
EXTT8=
EXTT9=
EXTT10=
EXTT11=
EXTT12=
EXTT13=
PLAYORDER=
